<!-- Generated by IcoMoon.io -->
<svg version="1.1" xmlns="http://www.w3.org/2000/svg" width="32" height="32" viewBox="0 0 32 32">
<title>pdf</title>
<path d="M30.905 8.66l-8.152-8.471c-0.116-0.12-0.276-0.189-0.443-0.189h-12.151c-1.36 0-2.466 1.106-2.466 2.465v8.612h-4.924c-1.017 0-1.845 0.827-1.845 1.845v9.234c0 1.017 0.828 1.845 1.845 1.845h4.924v5.539c0 1.357 1.106 2.461 2.466 2.461h18.452c1.36 0 2.466-1.103 2.466-2.459v-20.454c0-0.159-0.062-0.312-0.172-0.427zM22.462 1.661l6.692 6.954h-6.692v-6.954zM2.768 22.769c-0.339 0-0.614-0.275-0.614-0.614v-9.234c0-0.338 0.276-0.614 0.614-0.614h16.618c0.339 0 0.614 0.275 0.614 0.614v9.234c0 0.338-0.276 0.614-0.614 0.614h-16.618zM29.846 29.541c0 0.677-0.554 1.229-1.235 1.229h-18.452c-0.681 0-1.235-0.552-1.235-1.23v-5.539h10.463c1.017 0 1.845-0.827 1.845-1.845v-9.234c0-1.017-0.828-1.845-1.845-1.845h-10.463v-8.612c0-0.681 0.554-1.234 1.235-1.234h11.072v8c0 0.34 0.276 0.615 0.615 0.615h8v19.694z"></path>
<path d="M8.28 15.618c-0.204-0.266-0.458-0.438-0.761-0.517-0.197-0.053-0.62-0.079-1.269-0.079h-1.713v5.286h1.067v-1.994h0.696c0.483 0 0.852-0.025 1.107-0.076 0.188-0.041 0.372-0.124 0.553-0.251s0.331-0.3 0.449-0.521 0.177-0.494 0.177-0.819c-0-0.421-0.102-0.764-0.307-1.029zM7.366 17.073c-0.080 0.118-0.192 0.204-0.334 0.26s-0.423 0.083-0.844 0.083h-0.584v-1.5h0.516c0.385 0 0.641 0.012 0.768 0.036 0.173 0.031 0.316 0.109 0.429 0.234s0.17 0.284 0.17 0.476c0 0.156-0.040 0.293-0.121 0.411z"></path>
<path d="M13.718 16.466c-0.115-0.338-0.284-0.623-0.505-0.856s-0.487-0.395-0.797-0.487c-0.231-0.067-0.566-0.101-1.006-0.101h-1.951v5.286h2.008c0.394 0 0.709-0.037 0.945-0.112 0.315-0.101 0.565-0.242 0.75-0.422 0.245-0.238 0.434-0.549 0.566-0.934 0.108-0.315 0.162-0.69 0.162-1.125 0-0.495-0.058-0.912-0.173-1.249zM12.679 18.636c-0.072 0.237-0.165 0.407-0.279 0.51s-0.258 0.177-0.431 0.22c-0.132 0.034-0.347 0.050-0.645 0.050h-0.797v-3.501h0.48c0.435 0 0.727 0.017 0.876 0.050 0.2 0.043 0.364 0.126 0.494 0.249s0.231 0.293 0.303 0.512c0.072 0.219 0.108 0.532 0.108 0.941s-0.036 0.731-0.108 0.968z"></path>
<path d="M18.427 15.916v-0.894h-3.624v5.286h1.067v-2.246h2.207v-0.894h-2.207v-1.251z"></path>
</svg>
